<?xml version="1.0" standalone="no"?>
<!DOCTYPE svg PUBLIC "-//W3C//DTD SVG 20010904//EN"
 "http://www.w3.org/TR/2001/REC-SVG-20010904/DTD/svg10.dtd">
<svg version="1.0" xmlns="http://www.w3.org/2000/svg"
 width="300.000000pt" height="300.000000pt" viewBox="0 0 300.000000 300.000000"
 preserveAspectRatio="xMidYMid meet">
<metadata>
Created by potrace 1.14, written by Peter Selinger 2001-2017
</metadata>
<g transform="translate(0.000000,300.000000) scale(0.100000,-0.100000)"
fill="#000000" stroke="none">
<path d="M0 1500 l0 -1500 190 0 c183 0 190 1 190 20 0 25 17 25 55 0 38 -25
136 -28 155 -5 16 19 50 19 50 0 0 -13 138 -15 1180 -15 l1180 0 0 1500 0
1500 -1500 0 -1500 0 0 -1500z m1353 1009 c-3 -9 0 -26 6 -36 10 -17 10 -17
12 2 1 11 0 25 -1 30 -1 6 2 6 7 2 4 -5 8 -16 8 -25 0 -9 5 -17 12 -17 17 0
42 -36 36 -52 -3 -7 8 -24 23 -38 26 -24 28 -25 48 -8 15 13 17 14 8 2 -6 -9
-8 -20 -4 -24 4 -5 1 -5 -5 -1 -19 10 -16 1 4 -15 11 -10 14 -10 9 -1 -4 6 -3
12 1 12 5 0 15 -6 22 -12 10 -9 12 -9 7 -1 -3 6 -2 14 4 18 5 3 10 -2 11 -12
0 -10 2 -29 5 -43 3 -17 1 -21 -5 -11 -7 11 -10 9 -16 -8 -3 -11 -11 -21 -16
-21 -5 0 -9 -6 -9 -14 0 -7 -7 -20 -16 -27 -9 -7 -20 -24 -25 -37 -5 -13 -13
-20 -19 -17 -5 3 -10 1 -10 -6 0 -8 -5 -7 -17 2 -14 12 -16 12 -9 -1 4 -8 1
-7 -7 3 -14 17 -16 17 -42 -10 -14 -15 -25 -21 -23 -13 2 8 -4 15 -12 15 -10
0 -15 -9 -14 -27 0 -33 -7 -28 -22 15 -7 18 -16 31 -22 30 -15 -4 -25 32 -27
97 -1 30 -5 71 -8 90 -3 19 -8 52 -11 74 -5 36 -4 37 10 20 8 -11 14 -14 13
-9 -1 6 -1 25 0 43 1 29 3 32 21 22 16 -9 20 -8 20 6 0 13 3 14 15 4 12 -10
15 -10 15 2 0 8 6 15 14 15 8 0 11 -7 9 -18z m-523 -142 c0 -6 15 -42 34 -81
49 -103 64 -138 71 -168 14 -54 50 -63 125 -31 30 13 74 27 96 30 37 5 44 2
58 -19 9 -14 16 -35 16 -49 -1 -37 7 -115 15 -140 5 -14 4 -19 -4 -15 -17 11
-13 1 9 -19 18 -17 19 -16 14 8 -2 14 -1 28 4 31 7 4 9 -29 4 -58 -1 -4 -13
-1 -27 8 -23 15 -24 15 -18 -1 4 -10 2 -14 -5 -9 -7 4 -8 -2 -2 -24 5 -19 5
-28 -1 -25 -5 4 -9 12 -9 20 0 8 -4 16 -9 19 -5 4 -7 -4 -5 -16 3 -17 1 -15
-10 7 -9 17 -15 25 -16 18 0 -17 -28 -10 -44 12 -13 18 -14 18 -25 -2 -7 -15
-17 -20 -31 -16 -13 3 -20 0 -20 -8 -1 -22 -54 -75 -88 -87 -28 -10 -33 -8
-47 11 -8 12 -15 29 -15 39 0 23 -2 23 -47 -6 -68 -45 -93 -67 -99 -92 -4 -14
-16 -27 -30 -30 -13 -3 -24 -11 -24 -17 0 -6 3 -8 6 -4 8 8 44 -25 44 -40 0
-22 -100 -12 -160 18 -30 14 -69 32 -87 39 -60 23 -59 37 2 44 77 9 283 91
312 124 13 15 23 32 23 37 0 6 6 3 13 -5 13 -16 42 -26 33 -11 -4 5 -2 11 4
13 5 1 19 29 30 61 19 53 19 59 5 74 -9 8 -14 21 -11 28 3 8 -2 16 -10 19 -9
3 -13 10 -9 15 3 5 1 12 -5 16 -6 4 -8 11 -5 16 4 5 2 9 -3 9 -5 0 -14 11 -20
25 -14 30 -28 32 -37 5 -3 -11 -13 -20 -21 -20 -12 0 -14 -10 -10 -47 3 -27 3
-41 0 -33 -8 22 -15 44 -15 50 -1 3 -6 11 -12 19 -7 8 -13 60 -15 122 -4 105
-3 109 21 133 25 25 57 27 57 3z m1442 -64 c20 -23 28 -71 28 -159 -1 -70 -21
-172 -37 -183 -5 -3 -17 -19 -27 -34 -23 -38 -30 -29 -12 15 9 20 13 38 9 41
-3 4 -2 14 2 24 5 10 7 21 7 26 -1 4 3 7 10 7 6 0 8 3 5 6 -3 4 -2 16 4 27 6
10 7 17 2 14 -4 -3 -7 24 -5 59 1 37 -2 64 -7 64 -9 0 -94 -116 -96 -129 0 -3
-22 -17 -50 -31 -46 -25 -51 -26 -69 -11 -11 9 -17 11 -13 6 10 -18 -7 -35
-23 -25 -12 8 -4 20 40 63 30 29 81 94 113 145 46 73 62 92 81 92 12 0 30 -8
38 -17z m-607 -234 c73 -38 87 -60 57 -92 -22 -23 -22 -24 -22 -57 0 -12 -10
-24 -24 -30 -13 -5 -27 -14 -31 -20 -3 -5 -10 -8 -15 -5 -5 3 -11 1 -15 -5 -4
-6 -11 -8 -16 -5 -5 4 -9 0 -9 -8 0 -7 -6 -14 -12 -15 -7 0 -26 -4 -43 -7 -16
-4 -36 -8 -42 -8 -7 0 -13 -13 -13 -28 0 -29 -30 -55 -54 -46 -7 3 -18 31 -25
63 -7 33 -17 71 -22 86 -12 41 29 128 78 165 21 15 41 32 45 38 4 5 8 7 8 4 0
-4 15 -3 33 1 44 9 49 8 122 -31z m-420 -228 c3 -5 2 -12 -3 -15 -5 -3 -9 1
-9 9 0 17 3 19 12 6z m1205 -143 c0 -5 -4 -7 -9 -4 -5 3 -14 -1 -21 -9 -14
-17 -96 -20 -120 -5 -13 9 -13 11 0 20 19 12 150 11 150 -2z m-310 -139 c0 -6
-4 -8 -8 -5 -4 2 -8 -6 -8 -18 0 -12 6 -23 13 -23 10 0 10 3 0 16 -10 12 -9
13 1 7 29 -17 83 -166 60 -166 -5 0 -6 -6 -2 -12 5 -9 2 -9 -9 1 -9 7 -17 21
-18 30 0 11 -2 12 -6 3 -4 -10 -9 -9 -20 5 -9 11 -12 12 -8 3 4 -10 1 -9 -8 3
-9 10 -15 42 -16 78 -1 40 -6 66 -17 76 -12 13 -13 18 -3 24 15 9 49 -7 49
-22z m-665 -2 c22 -12 46 -22 53 -23 31 -5 25 -34 -6 -34 -17 0 -48 -38 -44
-53 1 -5 -2 -6 -8 -2 -5 3 -10 -1 -10 -10 0 -9 -4 -13 -10 -10 -5 3 -10 1 -10
-4 0 -6 -6 -10 -12 -8 -8 1 -12 -6 -10 -17 2 -12 -1 -16 -9 -10 -9 5 -11 1 -7
-14 4 -12 1 -25 -4 -29 -6 -3 -8 -2 -5 3 3 6 2 16 -4 24 -7 12 -9 10 -9 -7 0
-13 -5 -23 -11 -23 -5 0 -7 -4 -4 -10 3 -6 -1 -7 -9 -4 -11 4 -19 -2 -26 -20
-5 -14 -12 -26 -15 -26 -4 0 -3 5 1 12 5 7 3 8 -5 4 -7 -5 -10 -15 -7 -23 3
-8 2 -12 -2 -9 -11 7 -44 -33 -37 -44 3 -5 0 -12 -6 -15 -5 -4 -8 -14 -5 -24
4 -9 -2 -7 -14 8 -14 16 -20 19 -20 8 0 -16 -16 -17 -40 -2 -21 13 -41 15 -34
4 3 -5 9 -7 14 -4 5 3 11 1 14 -4 4 -5 2 -12 -3 -15 -5 -4 -19 6 -31 21 -12
16 -32 28 -43 28 -16 0 -21 6 -20 20 1 11 0 14 -3 8 -3 -7 -10 -13 -15 -13 -6
0 -7 6 -3 13 4 6 -5 1 -19 -13 -13 -14 -24 -27 -23 -30 0 -3 -4 -6 -9 -8 -6
-1 -11 23 -13 55 -2 32 -10 68 -18 81 -16 24 -52 29 -75 10 -49 -41 -103 -159
-114 -251 -7 -48 -13 -90 -14 -96 -1 -2 -7 2 -14 8 -8 6 -17 8 -20 4 -4 -3
-12 -1 -20 5 -10 9 -13 -6 -15 -75 -1 -52 3 -91 9 -100 9 -10 8 -13 -1 -13 -6
0 2 -12 19 -26 18 -14 31 -35 31 -47 -1 -18 -4 -16 -15 11 -8 17 -17 32 -20
32 -3 0 -2 -8 3 -17 5 -10 12 -38 16 -62 4 -24 10 -49 14 -55 10 -16 11 -37 2
-31 -4 3 0 -18 11 -45 26 -68 25 -110 -1 -110 -24 0 -25 -9 -5 -36 21 -28 20
-30 -31 -54 -25 -13 -47 -28 -49 -34 -11 -40 -40 -87 -48 -79 -4 3 -7 1 -7 -6
0 -8 -7 -11 -15 -7 -20 7 -19 -2 5 -52 30 -62 23 -89 -18 -63 -19 12 -43 61
-36 73 10 16 -10 6 -49 -26 -20 -16 -58 -42 -86 -57 l-51 -29 0 37 c0 47 20
113 53 179 13 27 32 66 41 87 9 21 24 41 33 44 10 4 23 12 29 17 7 6 33 27 58
46 l47 35 -8 50 c-13 84 -6 345 9 345 4 0 5 6 2 14 -7 18 -50 15 -46 -4 3 -11
0 -11 -12 0 -12 9 -16 9 -16 1 0 -7 -4 -10 -9 -7 -5 3 -14 -7 -19 -24 -8 -22
-15 -28 -28 -23 -13 5 -16 3 -11 -10 4 -11 1 -15 -13 -12 -20 4 -34 -20 -23
-37 3 -7 1 -8 -5 -4 -7 4 -12 2 -12 -5 0 -7 -3 -9 -6 -6 -8 7 -52 -26 -106
-80 l-37 -37 -6 30 c-4 16 -11 39 -17 50 -8 17 -6 28 8 50 11 15 14 25 8 21
-20 -12 8 53 45 108 62 90 144 155 289 229 20 10 41 33 51 54 23 50 49 94 90
156 66 98 93 113 254 141 181 31 393 32 452 2z m95 -45 c0 -10 -6 -19 -14 -19
-11 0 -12 4 -3 19 7 10 13 18 14 18 2 0 3 -8 3 -18z m250 -47 c7 -8 17 -12 23
-8 6 4 7 1 2 -6 -5 -9 -10 -10 -18 -2 -6 6 -19 11 -29 11 -10 0 -18 5 -18 10
0 15 26 12 40 -5z m105 -31 c22 -1 43 -3 46 -3 4 -1 7 -13 7 -27 0 -18 -3 -22
-9 -13 -7 11 -9 10 -9 -4 0 -10 -5 -15 -10 -12 -6 4 -7 11 -4 17 5 7 2 8 -5 4
-7 -5 -10 -15 -7 -25 5 -12 3 -12 -9 3 -8 10 -12 23 -8 29 3 6 2 7 -4 4 -6 -4
-21 5 -34 20 -13 14 -17 22 -9 18 8 -5 33 -10 55 -11z m-233 -11 c26 -31 27
-39 5 -40 -35 -3 -75 -59 -87 -122 -6 -31 -15 -64 -20 -73 -6 -10 -10 -25 -10
-33 0 -8 -5 -15 -11 -15 -5 0 -8 -4 -5 -9 4 -5 -3 -7 -14 -4 -11 3 -20 8 -21
12 0 3 -2 32 -4 65 -2 32 -8 63 -14 69 -6 6 -11 16 -11 22 0 5 5 3 10 -5 8
-12 10 -10 11 10 1 14 2 31 2 37 -1 7 3 10 8 7 5 -3 9 3 9 13 0 10 11 27 25
37 13 10 22 23 18 29 -3 5 -2 7 3 4 6 -3 16 -2 24 4 24 14 66 10 82 -8z m520
-135 c-7 -7 -10 -5 -7 8 5 29 6 30 12 16 3 -8 1 -18 -5 -24z m382 -64 c4 -11
14 -15 31 -12 14 3 25 1 25 -4 0 -5 4 -7 8 -4 19 11 112 -69 191 -164 24 -29
55 -85 58 -105 2 -18 2 -18 -8 -2 -8 14 -14 15 -31 6 -15 -8 -22 -8 -28 1 -6
9 -9 8 -13 -6 -4 -15 -5 -13 -6 6 -1 20 -3 22 -11 10 -5 -8 -10 -10 -10 -4 0
6 -12 16 -27 23 -22 10 -25 10 -17 -1 5 -8 1 -5 -8 5 -17 18 -23 15 -18 -8 1
-5 -7 -2 -17 8 -13 11 -23 13 -29 7 -16 -16 -41 19 -49 70 -3 25 -9 61 -12 80
-3 19 -9 40 -14 46 -5 6 -5 15 -1 19 4 5 2 5 -5 1 -10 -6 -33 21 -33 38 0 13
18 5 24 -10z m-1840 -230 c3 -8 2 -12 -4 -9 -6 3 -10 10 -10 16 0 14 7 11 14
-7z m185 -59 c25 -33 56 -61 76 -70 20 -8 35 -18 34 -22 -4 -15 13 -43 26 -43
6 0 20 -9 30 -20 34 -38 128 -72 191 -70 72 3 87 -2 29 -9 -35 -4 -49 -10 -47
-20 2 -11 -12 -12 -75 -8 -96 6 -102 8 -128 30 -11 10 -36 27 -55 38 -20 11
-49 40 -65 64 -17 25 -33 45 -37 45 -21 0 -45 140 -25 140 3 0 23 -25 46 -55z
m-693 -272 c-2 -16 -5 -33 -5 -39 -1 -6 -7 -11 -15 -11 -11 0 -10 7 2 39 18
45 24 49 18 11z m-111 -119 c-16 -14 -39 -33 -50 -43 -35 -30 -51 -36 -24 -7
26 26 89 74 99 75 3 0 -8 -11 -25 -25z m1394 -316 c-20 -38 -49 -61 -49 -39 0
13 40 61 51 61 6 0 5 -10 -2 -22z"/>
<path d="M1389 2442 c5 -9 16 -17 24 -18 13 -2 14 1 5 15 -14 22 -41 24 -29 3z"/>
<path d="M1450 2346 c0 -2 7 -7 16 -10 8 -3 12 -2 9 4 -6 10 -25 14 -25 6z"/>
<path d="M1240 1214 c0 -8 5 -12 10 -9 6 4 8 11 5 16 -9 14 -15 11 -15 -7z"/>
<path d="M2640 1083 c0 -6 8 -17 18 -24 16 -13 16 -13 2 6 -8 11 -16 22 -17
24 -2 2 -3 0 -3 -6z"/>
<path d="M2651 1024 c0 -12 7 -28 17 -35 15 -12 16 -12 6 1 -7 8 -14 24 -17
35 -4 19 -5 19 -6 -1z"/>
</g>
</svg>
